<?xml version="1.0" encoding="utf-8"?><!DOCTYPE svg PUBLIC "-//W3C//DTD SVG 1.1//EN" "http://www.w3.org/Graphics/SVG/1.1/DTD/svg11.dtd"><svg version="1.1" xmlns="http://www.w3.org/2000/svg" xmlns:xlink="http://www.w3.org/1999/xlink" x="0px" y="0px" viewBox="0 0 100 100" enable-background="new 0 0 100 100" xml:space="preserve" fill="white"><path d="M55.625,25.781c0.416-1.042,0.625-2.344,0.625-3.906s-0.209-2.865-0.625-3.906s-1.041-2.083-1.875-3.125
	c-0.885-1.094-1.875-2.083-2.969-2.969c-1.042-0.833-2.083-1.458-3.125-1.875s-2.396-0.625-4.062-0.625h-0.781
	c-2.188,0-4.453,1.146-6.797,3.438l-6.953,6.719c-6.927,6.719-13.646,13.49-20.156,20.312L-0.781,50l9.688,10.156
	c6.51,6.822,13.229,13.594,20.156,20.312l6.484,6.328c2.656,2.553,5.208,3.828,7.656,3.828S47.812,90,49.688,88.75
	c1.822-1.303,3.385-2.865,4.688-4.688c1.25-1.875,1.875-4.01,1.875-6.406c0-2.447-1.225-5.025-3.672-7.734L45.859,62.5h40.938
	c2.553,0,4.557-0.416,6.016-1.25c1.459-0.885,2.604-1.719,3.438-2.5c0.781-0.834,1.615-1.979,2.5-3.438
	C99.584,53.854,100,52.084,100,50c0-2.083-0.416-3.854-1.25-5.312c-0.885-1.458-1.719-2.604-2.5-3.438
	c-0.834-0.781-1.979-1.615-3.438-2.5c-1.459-0.833-3.463-1.25-6.016-1.25H45.234l4.141-3.984c1.719-1.615,3.072-3.047,4.062-4.297
	C54.428,28.021,55.156,26.875,55.625,25.781"></path></svg>