<svg xmlns="http://www.w3.org/2000/svg" xmlns:xlink="http://www.w3.org/1999/xlink" version="1.1" x="0px" y="0px" viewBox="0 0 100 125" enable-background="new 0 0 100 100" xml:space="preserve" fill="white"><path d="M32.904,59.602c2.297,2.871,4.834,5.408,7.706,7.706c0.154,0.123,0.308,0.246,0.461,0.369  c6.938-3.025,13.207-6.243,18.806-9.65c-7.012-4.667-13.027-10.681-17.694-17.693c-3.407,5.6-6.625,11.869-9.649,18.807  C32.658,59.293,32.78,59.446,32.904,59.602z"/><path d="M92.161,22.421c1.618-4.565,2.563-9.32,2.835-14.27c0.091-1.657-1.278-3.025-2.935-2.935  c-4.95,0.272-9.706,1.216-14.271,2.834C83.255,12.117,88.095,16.958,92.161,22.421z"/><path d="M45.248,67.023c4.535-2.097,8.77-4.282,12.703-6.559c0.555,3.885,1.11,7.769,1.665,11.653  c-7.881,6.565-15.761,13.134-23.642,19.7c-0.657-0.656-1.313-1.313-1.97-1.97c4.597-5.911,9.194-11.821,13.792-17.73  C46.946,70.42,46.096,68.721,45.248,67.023z"/><path d="M39.746,42.261c-2.276,3.934-4.461,8.167-6.559,12.702c-1.698-0.849-3.396-1.697-5.094-2.546  c-5.911,4.597-11.821,9.192-17.731,13.79c-0.657-0.656-1.313-1.313-1.97-1.97c6.567-7.88,13.134-15.761,19.701-23.641  C31.978,41.151,35.861,41.706,39.746,42.261z"/><path d="M76.539,8.513C63.774,13.422,52.537,23.68,42.828,39.288c0.095,0.143,0.19,0.285,0.285,0.427  c4.585,6.89,10.494,12.799,17.384,17.383c0.143,0.095,0.285,0.19,0.428,0.285c15.606-9.709,25.865-20.946,30.775-33.712  C87.467,17.859,82.353,12.745,76.539,8.513z M77.307,34.645c-3.243,3.242-8.499,3.242-11.74,0c-3.242-3.242-3.242-8.498,0-11.74  c3.241-3.241,8.497-3.241,11.74,0C80.547,26.147,80.547,31.403,77.307,34.645z"/><path d="M32.034,60.297c-2.627,1.313-5.254,2.627-7.88,3.94c0.393,0.524,0.795,1.038,1.201,1.544  c-5.211,1.035-8.806,3.614-12.52,10.381c0,0,0.897-0.075,1.566-0.332c-6.088,8.331-2.407,7.474-9.4,18.958  c6.603-4.107,11.65-2.946,17.271-9.437c-1.047,1.853-0.204,1.059-1.848,3.206c4.446-1.802,3.938-2.522,6.461-4.672  c-0.847,1.666-0.524,1.371-1.194,2.304c0,0,7.173-3.12,9.028-11.107c0.415,0.328,0.829,0.656,1.255,0.976  c1.314-2.626,2.627-5.253,3.94-7.881C36.978,65.828,34.382,63.232,32.034,60.297z M26.375,80.184  c0.595-0.538,0.804-0.712,1.313-1.747c-1.515,1.336-2.276,2.505-4.946,3.624c0.988-1.334,1.546-1.563,2.177-2.712  c-3.378,4.028-6.412,3.308-10.378,5.859c4.202-7.132,2.641-7.553,6.301-12.726c-0.402,0.16-1.746,1.445-1.746,1.445  c2.183-4.109,4.448-5.991,7.478-6.677c1.794,2.099,3.713,4.044,5.783,5.862C31.173,77.973,26.375,80.184,26.375,80.184z"/></svg>